<?xml version="1.0" standalone="no"?>
<!DOCTYPE svg PUBLIC "-//W3C//DTD SVG 20010904//EN"
 "http://www.w3.org/TR/2001/REC-SVG-20010904/DTD/svg10.dtd">
<svg version="1.0" xmlns="http://www.w3.org/2000/svg"
 width="484.000000pt" height="484.000000pt" viewBox="0 0 484.000000 484.000000"
 preserveAspectRatio="xMidYMid meet">
<metadata>
Created by potrace 1.14, written by Peter Selinger 2001-2017
</metadata>
<g transform="translate(0.000000,484.000000) scale(0.100000,-0.100000)"
fill="#000000" stroke="none">
<path d="M2820 2421 c0 -2261 1 -2381 18 -2381 37 0 237 51 349 88 787 264
1384 910 1582 1712 52 214 66 330 66 580 0 250 -14 366 -66 579 -45 182 -91
307 -179 486 -279 570 -765 1003 -1365 1215 -93 32 -289 84 -362 96 l-43 7 0
-2382z"/>
</g>
</svg>
